<svg width="692" height="464" viewBox="0 0 692 464" fill="none" xmlns="http://www.w3.org/2000/svg"><path fill-rule="evenodd" clip-rule="evenodd" d="M367.805 61.278c81.527-9.974 156.783-82.78 234.176-54.997 78.249 28.21 102.051 123.672 148.373 192.632 52.451 77.936 159.348 144.617 140.106 236.516-19.526 93.324-151.223 104.723-224.198 166.131-60.86 51.151-87.656 152.169-166.475 162.57-78.961 10.401-127.991-88.195-203.531-113.699-92.644-31.346-227.192 30.918-281.496-50.295-52.878-78.792 52.166-175.82 67.274-269.429 14.395-88.765-46.465-201.039 19.099-262.875 66.276-62.406 176.166 4.56 266.672-6.554z" fill="#34E4DA"/><g opacity=".1" fill-rule="evenodd" clip-rule="evenodd" stroke="#252AFF" stroke-width="4" stroke-miterlimit="10"><path d="M540.122 78.428l-30.206 19.63a1.446 1.446 0 00-.443 2.015l11.72 18.017a1.444 1.444 0 002.014.444l11.357-7.376v33.293c0 13.382-10.592 24.587-23.923 24.829-13.694.242-24.89-10.802-24.89-24.426V83.426c0-.806-.644-1.45-1.45-1.45h-21.466c-.806 0-1.45.644-1.45 1.45v60.864c0 27.086 22.151 49.658 49.175 49.456 10.794-.08 20.742-3.667 28.797-9.673 11.921-8.908 19.654-23.136 19.654-39.179V88.545c0-2.257-.644-4.514-1.974-6.53-3.705-5.642-11.277-7.255-16.915-3.587zM590.908 191.771l30.207-19.63c.684-.443.886-1.33.443-2.015l-11.72-18.017a1.445 1.445 0 00-2.014-.444l-11.358 7.377v-33.294c0-13.382 10.593-24.587 23.924-24.829 13.693-.242 24.889 10.802 24.889 24.426v61.428c0 .806.645 1.451 1.45 1.451h21.467c.805 0 1.45-.645 1.45-1.451v-60.864c0-27.086-22.151-49.658-49.176-49.456-10.794.08-20.741 3.668-28.796 9.673-11.922 8.908-19.654 23.136-19.654 39.179v56.308c0 2.258.644 4.515 1.973 6.53 3.705 5.683 11.277 7.296 16.915 3.628z"/></g><path fill-rule="evenodd" clip-rule="evenodd" d="M724.788 204.278l-51.154 33.25c-1.159.751-1.5 2.253-.75 3.414l19.847 30.519c.751 1.16 2.251 1.502 3.411.751l19.233-12.495v56.396c0 22.667-17.937 41.647-40.513 42.057-23.19.41-42.151-18.298-42.151-41.375V212.744a2.447 2.447 0 00-2.455-2.458h-36.353a2.447 2.447 0 00-2.456 2.458v103.095c0 45.881 37.513 84.115 83.278 83.774 18.279-.137 35.126-6.213 48.767-16.386 20.189-15.089 33.284-39.19 33.284-66.363v-95.449c0-3.823-1.091-7.647-3.342-11.06-6.275-9.559-19.098-12.29-28.646-6.077z" stroke="#252AFF" stroke-width="4" stroke-miterlimit="10" opacity=".1"/><g opacity=".1" fill-rule="evenodd" clip-rule="evenodd" stroke="#252AFF" stroke-width="4" stroke-miterlimit="10"><path d="M210.119 126.081l-51.154 33.249c-1.159.751-1.5 2.254-.75 3.414l19.848 30.519c.75 1.161 2.25 1.502 3.41.751l19.234-12.494v56.395c0 22.667-17.938 41.648-40.514 42.057-23.19.41-42.151-18.297-42.151-41.374V134.547a2.446 2.446 0 00-2.455-2.458H79.234a2.446 2.446 0 00-2.456 2.458v103.095c0 45.881 37.513 84.115 83.278 83.773 18.279-.136 35.126-6.213 48.767-16.386 20.189-15.089 33.284-39.19 33.284-66.363v-95.448c0-3.824-1.091-7.647-3.342-11.061-6.275-9.558-19.098-12.289-28.646-6.076zM296.125 318.069l51.154-33.25c1.159-.751 1.5-2.253.75-3.414l-19.847-30.519c-.751-1.161-2.251-1.502-3.411-.751l-19.233 12.494v-56.395c0-22.667 17.937-41.648 40.513-42.057 23.19-.41 42.151 18.298 42.151 41.374v104.051a2.446 2.446 0 002.455 2.458h36.353a2.447 2.447 0 002.456-2.458V206.507c0-45.88-37.513-84.114-83.278-83.773-18.279.136-35.126 6.213-48.767 16.386-20.188 15.089-33.284 39.19-33.284 66.363v95.38c0 3.824 1.092 7.647 3.342 11.061 6.275 9.627 19.098 12.358 28.646 6.145z"/></g><g opacity=".1" fill-rule="evenodd" clip-rule="evenodd" stroke="#252AFF" stroke-width="4" stroke-miterlimit="10"><path d="M177.34 364.663l-51.153 33.25c-1.16.751-1.501 2.253-.75 3.414l19.847 30.519c.75 1.16 2.251 1.502 3.41.751l19.234-12.495v56.395c0 22.668-17.938 41.648-40.513 42.058-23.19.41-42.151-18.298-42.151-41.375V373.129a2.447 2.447 0 00-2.455-2.458H46.455A2.447 2.447 0 0044 373.129v103.095c0 45.881 37.513 84.115 83.278 83.774 18.279-.137 35.126-6.213 48.767-16.386 20.188-15.089 33.284-39.19 33.284-66.364V381.8c0-3.823-1.092-7.647-3.342-11.06-6.275-9.559-19.098-12.29-28.647-6.077zM263.347 556.651l51.154-33.25c1.159-.751 1.5-2.253.75-3.414l-19.848-30.518c-.75-1.161-2.251-1.503-3.41-.751l-19.234 12.494v-56.395c0-22.668 17.938-41.648 40.514-42.058 23.19-.409 42.151 18.298 42.151 41.375v104.051a2.446 2.446 0 002.455 2.458h36.353a2.446 2.446 0 002.455-2.458V445.09c0-45.881-37.512-84.115-83.278-83.774-18.279.137-35.125 6.213-48.766 16.386-20.189 15.089-33.284 39.19-33.284 66.364v95.38c0 3.823 1.091 7.647 3.342 11.06 6.275 9.627 19.097 12.358 28.646 6.145z"/></g><g opacity=".1" fill-rule="evenodd" clip-rule="evenodd" stroke="#252AFF" stroke-width="3" stroke-miterlimit="10"><path d="M308.62 50.37l-16.086 10.416a.766.766 0 00-.236 1.07l6.241 9.56a.771.771 0 001.073.235l6.048-3.914v17.666c0 7.1-5.641 13.046-12.74 13.175-7.293.128-13.256-5.732-13.256-12.961V53.023a.768.768 0 00-.772-.77H267.46a.768.768 0 00-.772.77v32.295c0 14.372 11.796 26.349 26.189 26.242a25.95 25.95 0 0015.336-5.133c6.349-4.727 10.467-12.277 10.467-20.789v-29.9a6.246 6.246 0 00-1.051-3.464c-1.973-2.994-6.006-3.85-9.009-1.903zM335.668 110.511l16.086-10.415a.766.766 0 00.236-1.07l-6.241-9.56a.771.771 0 00-1.073-.235l-6.049 3.914V75.479c0-7.1 5.642-13.046 12.741-13.175 7.293-.128 13.256 5.732 13.256 12.961v32.594c0 .428.343.77.772.77h11.432a.768.768 0 00.772-.77V75.565c0-14.373-11.797-26.35-26.189-26.243a25.951 25.951 0 00-15.336 5.133c-6.349 4.727-10.467 12.277-10.467 20.789v29.878c0 1.198.343 2.395 1.051 3.465 1.973 3.015 6.006 3.871 9.009 1.924z"/></g><g opacity=".1" fill-rule="evenodd" clip-rule="evenodd" stroke="#252AFF" stroke-width="3" stroke-miterlimit="10"><path d="M464.723 22.16l-11.689 7.612a.562.562 0 00-.172.781l4.536 6.986a.558.558 0 00.779.172l4.395-2.86v12.91c0 5.189-4.099 9.534-9.258 9.628-5.299.093-9.631-4.189-9.631-9.472V24.098a.56.56 0 00-.562-.562h-8.307a.56.56 0 00-.561.562v23.6c0 10.503 8.572 19.256 19.03 19.178a18.788 18.788 0 0011.144-3.752c4.613-3.454 7.605-8.97 7.605-15.191v-21.85c0-.875-.249-1.75-.764-2.532-1.433-2.188-4.363-2.813-6.545-1.39zM484.376 66.11l11.689-7.612a.561.561 0 00.171-.781l-4.535-6.987a.558.558 0 00-.779-.172l-4.395 2.86v-12.91c0-5.188 4.099-9.533 9.257-9.627 5.299-.094 9.632 4.189 9.632 9.471v23.82a.56.56 0 00.561.562h8.307a.56.56 0 00.561-.563v-23.6c0-10.502-8.572-19.255-19.03-19.177a18.785 18.785 0 00-11.143 3.751c-4.613 3.454-7.606 8.972-7.606 15.192V62.17c0 .875.25 1.75.764 2.532 1.434 2.203 4.364 2.829 6.546 1.406z"/></g><g clip-path="url(#clip0)"><path fill-rule="evenodd" clip-rule="evenodd" d="M307.746 188.98l-30.364.616c-6.205-.095-9.236-2.793-12.836-2.888-6.395-.189-10.706 2.225-10.706 2.225s-9.379-2.745-16.295-3.124c-7.531-.426-8.573-.379-15.963 1.799-15.11 4.402-27.663 21.821-33.868 34.649-13.974 28.827-18.474 37.063-25.864 67.879-5.163 21.49-8.431 96.232-8.431 96.232s-8.811 18.508-3.458 22.484c6.679 5.018 22.689 2.651 30.6 3.03 30.174 1.467 60.916-6.959 90.048-13.68 58.642-13.538 117.379-29.963 177.68-33.892 21.221-1.373 42.489-.852 63.805-1.515 16.627-.521 30.364-.994 45.522-8.994 18.568-9.798 10.8-29.111 6.11-45.394-1.8-6.201-4.358-16.094-8.668-21.348-4.737-5.775-7.532-8.662-13.027-13.491-17.431-15.431-36.237-20.922-57.458-29.679-35.479-14.674-70.295-30.578-106.485-43.359-15.347-5.443-30.742-10.792-46.516-14.863-3.837-.994-6.252-.331-6.252-.331l-17.574 3.644z" fill="#252AFF"/><path fill-rule="evenodd" clip-rule="evenodd" d="M289.982 311.247s-7.958-4.26-13.594-2.651c-13.927 4.024-19.232 8.426-28.943 20.496-3.221 4.024-6.726 11.645-10.658 15.432-10.326 9.94-21.41 14.91-33.584 22.342-2.984 1.799-10.326 4.307-16.39 8.804-8.289 6.106-13.547 14.958-17.242 17.609-22.737 16.236-33.584 23.194-58.074 36.732-13.074 7.195-22.974 12.638-35.195 21.301-3.174 2.272-14.353 10.271-13.358 13.964.995 3.692 10.753 5.68 27.522 7.905 16.768 2.224 86.4.047 118.232 7.337 54.426 12.449 93.553-.711 148.88.284 48.789.852 97.2 8.047 146.085 8.189 51.821.142 97.721-7.195 149.637-5.444 42.253 1.42 64.801 9.609 107.101 10.177 30.932.426 71.148-3.55 72.474-7.337 1.468-4.118-16.011-11.597-18.474-13.301-7.863-5.491-13.074-8.52-20.842-14.343-15.916-12.023-24.205-28.069-36.19-42.365-4.547-5.443-26.052-18.318-31.5-23.525-6.916-6.627-2.842-15.526-7.437-19.076-4.689-3.645-11.463-7.006-18.331-14.106-2.416-2.509-13.311-27.028-16.627-30.2-8.574-8.283-16.626-9.42-16.626-9.42s-16.485-5.727-16.579-5.064c-.948 6.721 1.894 11.739-1.042 18.034-5.827 12.402-15.964 20.78-27.616 27.881-4.027 2.414-24.301 11.833-24.301 11.833s-10.705-8.757-20.984-17.088c-8.716-7.052-19.184-14.863-19.184-14.863s-31.263-9.514-48.885-17.466c-10.137-4.545-20.795-8.521-31.974-10.509-14.305-2.509-55.137 7.574-55.137 7.574s-10.089 16.141-19.705 24.519c-6.395 5.586-18.758 10.13-28.705 17.041-12.127 8.426-21.364 18.745-21.364 18.745l-17.526 20.496s-2.558 1.751-8.432.805c-16.389-2.746-32.211-23.431-37.232-31.1-5.021-7.668-12.979-22.342-13.784-28.117-.805-5.775-.142-15.005-.142-15.005l15.726-16.52z" fill="#C556CF"/><path fill-rule="evenodd" clip-rule="evenodd" d="M275.63 326.252s-4.547 4.971 0 21.727c3.032 11.266 9.237 17.656 17.053 26.839 3.931 4.592 8.194 11.881 12.837 15.763 5.021 4.165 13.263 11.171 20.321 11.171 4.547 0 6.868.142 6.868.142s15.063-19.123 20.321-23.147c5.164-3.929 12.269-10.035 17.1-13.633 14.495-10.792 25.485-14.011 38.274-28.306 6.679-7.479 17.006-21.017 22.311-29.868 2.653-4.403 13.595-19.881 13.595-19.881s-15.963-7.148-20.321-11.171c-15.395-14.201-26.622-32.614-33.964-52.116-9.094-24.188-18.426-80.47-18.426-80.47s3.41-15.005.189-21.916-8.005-8.426-10.136-8c-6.537 1.468-12.506 21.632-14.732 26.319-4.595 9.845-11.842 18.792-16.579 28.59-3.884 8.094-5.684 19.691-9.19 28.496-3.6 8.899-11.037 18.744-12.41 27.833-2.842 18.319 3.6 42.033-2.085 59.926-3.315 10.366-9.663 17.183-16.01 25.845-5.069 7.053-15.016 15.857-15.016 15.857z" fill="#FFE6D4"/><path fill-rule="evenodd" clip-rule="evenodd" d="M377.236 24.444l7.768-3.172 100.99-1.278 12.032 7.148.426 240.51L493.526 281l-11.226 3.408-100.185-.142-9.142-14.958-.332-235.918 4.595-8.947z" fill="#00155F"/><path fill-rule="evenodd" clip-rule="evenodd" d="M374.157 42.668l2.084-10.414 9.332-6.485 23.21-.757 5.4 6.58 44.527.047 5.542-5.775 21.411.189 10.421 5.444.71 232.699-4.642 10.887-7.105 4.023-98.953.663-6.679-4.733-5.116-12.686-.142-219.682z" fill="#fff"/><path fill-rule="evenodd" clip-rule="evenodd" d="M598.542 400.048s-8.242-8.615-16.958-14.769c-7.2-5.065-14.305-7.573-20.984-9.23-14.921-3.645-30.079.284-44.669-6.296-10.894-4.923-16.863-11.833-23.637-21.348-4.594-6.485-9.237-13.68-12.6-17.135-2.937-3.077-7.2-5.207-8.621-12.118-1.042-5.017-.474-14.248-.616-23.099-.142-8.615-.663-20.497-.426-25.135.237-4.639 1.8-6.533 3.221-8.521 3.932-5.491 14.921 6.533 17.053 9.941 8.1 12.78 5.684 21.111 15.016 33.182 3.031 3.881 11.605 15.431 17.005 15.336 1.469-.047 4.453-.189 4.784-2.177.616-3.882-1.752-8.047-3.126-11.503-3.126-7.952-1.942-9.183-7.295-15.952-6.347-7.999-12.079-13.443-20.131-22.389-6.679-7.479-11.606-14.295-17.669-20.307-6.347-6.248-18.947-10.887-25.39-17.041-7.531-7.195-16.863-16.094-21.789-25.229-1.942-3.55-1.327-12.97 3.221-14.437 4.547-1.468 15.158 2.603 20.7 5.727 7.2 4.071 21.316 16.709 30.221 20.828a276.364 276.364 0 009.806 4.212s6.3-4.686 11.605-4.922c5.684-.237 22.311-2.651 22.311-2.651s5.068-6.154 9.284-7.29c4.689-1.231 24.774 1.61 24.774 1.61s6.347-6.58 12.031-7.716c6.632-1.325 11.937.852 18.474 2.083 7.342 1.372 22.026 1.325 27.9 6.579 7.248 6.58 11.463 22.437 12.837 28.07 1.374 5.633 8.526 30.294 14.305 43.738 5.969 13.822 20.227 42.649 20.227 42.649s.047 7.005-3.079 15.052c-4.074 10.509-12.174 23.431-18.995 31.857-4.074 5.065-25.958 21.395-27.853 22.437-4.358 2.461-20.937 5.964-20.937 5.964z" fill="#FFE6D4"/><path fill-rule="evenodd" clip-rule="evenodd" d="M497.41 209.997s7.721 4.071 13.121 4.497c1.564.142 5.4-1.231 5.921-3.313.758-3.03.664-6.343.048-9.089-1.184-5.349-4.263-10.65-6.869-15.526-1.421-2.698-7.484-9.751-7.484-9.751s3.742 1.42 4.121 1.562c1.042.379 2.321 1.042 3.269 1.515 2.557 1.325 6.063 1.515 9.189.615 7.532-2.13 5.163-7.336 3.269-13.064-1.895-5.775-5.4-9.372-9.758-14.153-2.937-3.219-6.585-7.716-8.953-10.982-1.326-1.799-2.7-3.55-4.263-5.159-.427-.474-1.421-1.326-1.421-1.326s-.048 2.367-.048 3.55c0 4.26-.047 8.568-.142 12.828-.379 13.301-1.942 27.218-.994 40.472.236 4.922.994 17.324.994 17.324zM498.215 128.486s6.822 1.42 11.369.852c1.942-.236 4.974-1.988 4.737-3.834-.663-5.964-1.279-9.562-4.595-14.721-.995-1.562-5.447-8.757-6.916-11.55-.142-.284-4.689-6.864-4.689-6.864s-.616 8.047-.663 8.331c-1.043 7.669-1.232 15.195-.616 22.958.095 1.041 1.373 4.828 1.373 4.828z" fill="#FFEFE9"/><path d="M399.025 132.604v-4.45-3.171c0-.426.474-1.988 0-2.32v-.236c0-.332-.142-.19-.521.473.095.095.711-.047.853 0 .947.142 1.989 0 2.937 0 2.084 0 4.168 0 6.252.047 2.653.048 2.653-4.071 0-4.071h-7.437c-2.321 0-5.068-.236-6.016 2.462-.568 1.657-.189 3.834-.189 5.538v5.87c.047 2.508 4.121 2.508 4.121-.142zM408.593 192.294h-7.958c-.852 0-1.279.237-1.61-.568-.474-1.041 0-3.456 0-4.592v-5.064c0-2.604-4.074-2.651-4.074 0v5.964c0 2.083-.426 4.923.9 6.674 1.516 1.988 4.311 1.657 6.537 1.657h6.205c2.7.094 2.7-4.071 0-4.071zM469.083 182.117c0 3.077.048 6.153 0 9.23-.047 1.089-.047.947-1.184.947-2.937.047-5.826 0-8.763.047-2.605 0-2.605 4.024 0 4.071 3.079 0 6.205.142 9.332.047 2.558-.094 4.5-1.514 4.736-4.212.237-3.314 0-6.769 0-10.083-.094-2.651-4.121-2.651-4.121-.047zM459.136 122.948h5.021c.758 0 4.216-.521 4.784 0 .616.615.142 3.881.142 4.639 0 1.657.095 3.361 0 5.065-.189 2.603 4.264 2.65 4.074 0-.142-1.988 0-3.976 0-5.965 0-2.177.426-5.017-1.326-6.674-1.706-1.609-4.406-1.231-6.537-1.231h-6.206c-2.7-.047-2.7 4.166.048 4.166zM421.194 128.628c-4.074-.142-8.337-.899-12.411-.568-3.126.284-4.879 2.556-5.447 5.491-.663 3.55-.663 7.574-.426 11.218.189 3.219 1.989 4.829 5.163 5.113 3.884.378 8.005.473 11.937.189 5.637-.379 5.21-5.302 5.21-9.514 0-3.645 1.279-10.556-3.505-11.739-2.084-.521-3.268 2.319-1.468 3.455 1.326.852.947 2.367.9 3.787-.048 1.799-.048 3.597-.095 5.396-.047.994.142 2.319-.142 3.266-.474 1.515-3.458.947-4.784.947-1.706 0-3.411-.048-5.069-.095-.805 0-1.895.095-2.7-.095-.947-.189-.947-.094-1.137-1.041-.331-1.562 0-3.692 0-5.301.048-1.61-.047-3.456.332-5.065.426-1.657 1.042-1.894 2.7-1.894 3.647-.047 7.247.237 10.895.19 2.51 0 2.51-3.645.047-3.74z" fill="#00155F"/><path d="M412.572 137.196c-.379.189-.615.521-.852.852-.379.568-.474 1.373-.284 1.988.236.663.615 1.231 1.231 1.609.426.284.948.426 1.469.426.757 0 1.468-.236 2.084-.71.473-.331.9-.804 1.089-1.325.237-.426.332-.852.379-1.325 0-.379-.047-.71-.237-.994-.284-.71-.9-1.373-1.705-1.515-.616-.095-.995-.142-1.563-.095-.568.095-.9.189-1.468.473-.522.237-1.043.995-1.137 1.515-.142.568-.095 1.089.142 1.657a2.54 2.54 0 002.984 1.467c.095-.047.189-.047.284-.047-.237.047-.473.047-.663.095h.474c-.237-.048-.474-.048-.663-.095.142 0 .236.047.379.095-.616-1.089-1.232-2.13-1.8-3.219 0 .047 0 .047-.048.095.095-.19.19-.426.284-.616-.047.142-.142.237-.189.379.142-.189.284-.331.426-.521-.047.095-.142.142-.237.237.19-.142.332-.284.521-.379-.047.048-.094.048-.142.095.19-.095.427-.189.616-.237-.095.048-.142.048-.237.048.237-.048.474-.048.663-.095h-.142c.237.047.474.047.663.095-.284-.095-.568-.095-.9-.142.237.047.427.142.664.142-.521-.048-.995-.426-1.469.047h1.184l-.047-.095c.19.048.332.095.521.19-.9-.379-1.563-.474-2.274-.095zM421.194 165.171c-4.121-.095-8.574-.615-12.695-.142-7.295.899-5.495 11.739-5.211 16.709.19 3.314 1.8 5.112 5.164 5.444 3.884.331 8.005.142 11.889-.19 5.448-.473 4.879-5.632 4.879-9.703 0-3.692 1.327-10.745-3.505-11.976-2.084-.521-3.269 2.319-1.469 3.455 1.327.852.948 2.367.9 3.74-.047 1.893-.047 3.739-.094 5.633-.048.994.094 2.177-.095 3.124-.237 1.183-.568 1.231-1.705 1.278-.853.047-1.706.047-2.606.095-1.752.094-3.505.189-5.257.189-.806 0-1.848.095-2.653-.047-1.042-.19-.9-.19-1.137-1.042-.474-1.514-.189-3.881-.237-5.443-.047-1.61-.142-3.361.142-4.971.284-1.656.948-2.13 2.653-2.177 3.647-.142 7.342-.095 11.037-.189 2.463-.048 2.463-3.692 0-3.787z" fill="#00155F"/><path d="M412.572 174.117c-.379.19-.615.521-.852.852-.379.568-.474 1.373-.284 1.988.236.663.615 1.231 1.231 1.61.426.284.948.426 1.469.426.757 0 1.468-.237 2.084-.71.473-.332.9-.805 1.089-1.326.237-.426.332-.852.379-1.325 0-.379-.047-.71-.237-.994-.284-.71-.9-1.373-1.705-1.515-.616-.094-.995-.142-1.563-.094-.568.094-.9.189-1.468.473-.522.237-1.043.994-1.137 1.515-.142.568-.095 1.088.142 1.656a2.542 2.542 0 002.984 1.468c.095-.048.189-.048.284-.048-.237.048-.473.048-.663.095h.474c-.237-.047-.474-.047-.663-.095.142 0 .236.048.379.095-.616-1.089-1.232-2.13-1.8-3.219 0 .048 0 .048-.048.095.095-.189.19-.426.284-.615-.047.142-.142.236-.189.378.142-.189.284-.331.426-.52-.047.094-.142.142-.237.236.19-.142.332-.284.521-.378-.047.047-.094.047-.142.094.19-.094.427-.189.616-.236-.095.047-.142.047-.237.047.237-.047.474-.047.663-.095h-.142c.237.048.474.048.663.095-.284-.095-.568-.095-.9-.142.237.047.427.142.664.142-.521-.047-.995-.426-1.469.047h1.184s-.047-.047-.047-.094c.19.047.332.094.521.189-.9-.379-1.563-.426-2.274-.095zM460.889 127.871c-4.121-.095-8.574-.616-12.695-.142-7.295.899-5.495 11.739-5.211 16.709.19 3.314 1.8 5.112 5.163 5.444 3.885.331 8.006.142 11.89-.19 5.447-.473 4.879-5.633 4.879-9.703 0-3.693 1.326-10.745-3.505-11.976-2.084-.521-3.269 2.319-1.469 3.455 1.327.852.948 2.367.9 3.74-.047 1.893-.047 3.739-.094 5.633-.048.994.094 2.177-.095 3.124-.237 1.183-.569 1.23-1.705 1.278-.853.047-1.706.047-2.606.094-1.752.095-3.505.19-5.258.19-.805 0-1.847.094-2.652-.048-1.042-.189-.9-.189-1.137-1.041-.474-1.515-.19-3.881-.237-5.443-.047-1.61-.142-3.361.142-4.971.284-1.656.947-2.13 2.653-2.177 3.647-.142 7.342-.095 11.037-.189 2.415-.048 2.415-3.74 0-3.787z" fill="#00155F"/><path d="M452.22 136.817c-.379.189-.616.521-.853.852-.379.568-.473 1.373-.284 1.988.237.663.616 1.231 1.232 1.61.426.284.947.426 1.468.426.758 0 1.468-.237 2.084-.71.474-.332.9-.805 1.09-1.326.237-.426.331-.852.379-1.325 0-.379-.048-.71-.237-.994-.284-.71-.9-1.373-1.705-1.515-.616-.095-.995-.142-1.564-.095-.568.095-.9.19-1.468.474-.521.236-1.042.994-1.137 1.514-.142.569-.095 1.089.142 1.657a2.543 2.543 0 002.984 1.468c.095-.048.19-.048.285-.048-.237.048-.474.048-.663.095h.473c-.237-.047-.473-.047-.663-.095.142 0 .237.048.379.095-.616-1.089-1.232-2.13-1.8-3.219 0 .047 0 .047-.047.095.094-.19.189-.426.284-.616-.048.142-.142.237-.19.379.142-.189.285-.331.427-.521-.048.095-.142.142-.237.237.189-.142.331-.284.521-.379-.047.048-.095.048-.142.095a3.29 3.29 0 01.616-.237c-.095.048-.143.048-.237.048.237-.048.473-.048.663-.095h-.142c.237.047.473.047.663.095-.284-.095-.568-.095-.9-.142.237.047.426.094.663.094-.521-.047-.995 0-1.468 0h1.184l-.047-.047c.189.047.331.142.521.189-.9-.378-1.564-.426-2.274-.047zM437.347 129.054c-2.511-.947-7.958-1.988-8.906 1.562-.852 3.077-1.042 8.189 2.89 8.994.758.142 1.421.095 2.179 0 .426-.047.9-.095 1.326-.142.379.095.474-.047.237-.426 0 .284 0 .568.047.852 0 1.136.048 2.225-.047 3.361-.095 1.467-.095 1.798-1.469 1.893-1.61.095-3.315 0-4.5 1.373-1.279 1.562-1.042 4.165-.615 6.011.473 1.988 3.6 1.988 4.026 0 .095-.378.142-3.124.237-3.218-.284.236 1.563.236 1.705.236 1.374-.047 2.653-.378 3.553-1.467 1.8-2.225 1.658-7.384.947-9.988-.332-1.136-1.137-1.988-2.274-2.319-.9-.284-4.121.568-4.594.047-.237-.237 0-1.42 0-1.799 0-.52.047-1.041.094-1.562.237-.899.095-.994-.426-.236.805-.237 1.895-.142 2.747-.284.995-.142 1.895-.426 2.843-.758 1.089-.331.994-1.751 0-2.13zM406.13 153.006c-.663.094-1.089.804-1.279 1.372-.236.758.143 1.563.616 2.131.237.284.663.426.995.473.379.047.758 0 1.137-.189.616-.379 1.089-1.089 1.042-1.846 0-.616-.237-1.231-.663-1.657-.569-.568-1.327-.758-2.084-.616-.616.142-1.185.568-1.469 1.089-.284.568-.426 1.231-.237 1.846.237.758.806 1.42 1.611 1.61.9.236 1.942-.048 2.416-.9.473-.804.284-1.751-.285-2.461-.426-.474-1.136-.616-1.705-.426-.616.189-.995.615-1.231 1.231 0 .047 0 .047-.048.094.048-.142.142-.284.19-.426 0 .047-.048.047-.048.095.095-.142.19-.237.285-.379 0 .047-.048.047-.048.047.142-.094.237-.189.379-.284-.047 0-.047.048-.095.048.143-.048.285-.142.427-.19-.048 0-.095.048-.142.048.142 0 .331-.048.473-.048h-.047c.142 0 .332.048.474.048-.048 0-.095 0-.142-.048.142.048.284.142.426.19-.048 0-.095-.048-.095-.095.142.095.237.189.379.284l-.095-.095c.095.142.19.237.285.379-.048-.047-.048-.095-.048-.095.048.142.142.285.19.427 0-.048 0-.095-.048-.095 0 .142.048.331.048.473v-.189c0 .142-.048.331-.048.473 0-.047 0-.094.048-.094-.048.142-.142.284-.19.426.048-.048.048-.095.095-.142-.095.142-.19.236-.284.378l.142-.142c-.142.095-.237.19-.379.284.047 0 .047-.047.095-.047-.143.047-.285.142-.427.189.048 0 .095-.047.095-.047-.142 0-.332.047-.474.047h.095c-.142 0-.332-.047-.474-.047.048 0 .048 0 .095.047-.142-.047-.284-.142-.426-.189.047 0 .047.047.094.047-.142-.094-.236-.189-.378-.284.047 0 .047.048.094.095-.094-.142-.189-.237-.284-.379.047.048.047.095.095.142-.048-.142-.142-.284-.19-.426 0 .048.048.095.048.142 0-.142-.048-.331-.048-.473v.095c0-.142.048-.332.048-.474 0 .048 0 .142-.048.19.048-.142.142-.285.19-.427 0 0 0 .048-.048.048.095-.142.19-.237.285-.379 0 0 0 .047-.048.047l2.132-.284c-.047 0-.095-.047-.095-.047.095.095.237.189.332.284l-.142-.142c.094.095.189.237.284.331l-.426-.568c.094.095.142.237.236.332-.047-.048-.047-.095-.094-.142.047.094.094.236.142.331-.048-.142-.095-.331-.19-.473-.379-.521-.9-.71-1.516-.568zM409.02 157.266c-1.232.805-.995 2.651-.048 3.597.332.332.853.663 1.374.663a1.841 1.841 0 001.516-.947c.426-.71.473-1.656.095-2.366-.948-1.752-3.648-1.278-4.074.615-.237 1.183.474 2.225 1.61 2.556.9.237 2.037-.047 2.653-.71.9-.994.758-2.698-.474-3.408-.663-.331-1.373-.331-2.036.047-.569.332-1.09 1.089-.995 1.799.094.757.473 1.467 1.279 1.657h.047c.947.236 1.705-.332 2.037-1.184.71-1.798-3.174.758-2.747-.804.094-.284.236-.521.473-.71.237-.095.284-.142.095-.095.284-.047.332-.047.189-.047-.142 0-.047 0 .237.047.616.237.9.663.948 1.278-.048.331-.048.426 0 .237-.285.899-1.611 1.088-2.085.284-.094-.284-.142-.332-.094-.142a.96.96 0 010-.521c-.048.142 0 .095.094-.142.143-.189.19-.237.095-.095.521-.142.995-.284 1.516-.378l-.284-.048c.047.048.142.048.189.095-.047 0-.047-.047-.095-.047-.094-.048-.094-.048 0 0 .095.094.095.094 0 0-.189-.095.095.142 0 0-.094-.095-.047-.237 0 0 0-.048-.094-.284-.047-.095.095.237 0-.237-.047-.331 0-.095-.048-.142-.048-.237-.047-.568-.852-.852-1.373-.568zM413.425 155.278c1.8 1.089 4.263.947 6.3 1.089-.616-.852-1.279-1.657-1.895-2.509-.379 2.603-1.61 7.621 2.037 8.331 1.753.331 3.837-.142 5.59-.284.9-.048 1.8-.095 2.652-.142.616 0 1.185-.048 1.8-.048 1.09.048 1.185 0 .285-.142-.332-.426-.664-.899-1.042-1.325.378 1.751-.427 3.03 1.421 4.118a1.628 1.628 0 001.61 0c2.084-1.23 2.179-5.917-.284-6.911-1.516-.568-3.6-.142-5.163-.047-.806.047-5.637.805-5.732.663.19.52.426.994.616 1.514-.19-1.751.095-3.502 0-5.254-.047-.994-.853-2.035-1.99-1.988-2.036.142-4.5 0-6.3 1.041-.568.521-.521 1.468.095 1.894zM433.841 154.236c-.332.379-.474.853-.663 1.279-.237.568.142 1.372.663 1.656.568.284 1.184.379 1.753.19.568-.19 1.136-.568 1.421-1.136.71-1.231.189-2.699-.948-3.409-1.137-.757-2.747-.378-3.41.852-.806 1.468-.048 3.693 1.847 3.693.995 0 1.99-.852 1.942-1.941-.047-.521-.189-.852-.379-1.278.048.142.142.331.19.473 0-.047-.048-.095-.048-.142.048.19.048.331.095.521v-.19c0 .19-.047.332-.047.521 0-.047 0-.142.047-.189-.047.142-.142.331-.189.473.047-.094.189-.331 0-.047a1.453 1.453 0 01-.379.379c-.332.094-.379.142-.237.094-.142 0-.332.048-.474.048h.142c-.142 0-.331-.048-.473-.048a37.76 37.76 0 01-.285-.142c.095.048.095.048-.047-.047a.373.373 0 01-.19-.189c-.094-.142-.094-.142-.047-.095.048.142.048.047-.095-.237 0-.094-.047-.189-.047-.284 0-.094.047-.189.047-.284-.047.142-.047.095 0-.047 0-.095.048-.142.142-.237.095-.095.095-.142.048-.047-.142.142.331-.19.095-.048.047 0 .331-.142.142-.047.142-.047-.9.331-.237.095.568.236 1.089.473 1.658.663-.142-.332-.284-.663-.569-.947-.426-.284-1.089-.284-1.468.094zM442.273 156.414c1.563.568 3.363.379 4.973.568l-.994-.284.284.142c-.284-.379-.616-.805-.9-1.183.142.378-.142 2.035-.284 2.792-.237 1.373.426 2.746 1.942 2.935 1.516.189 2.51-.899 2.652-2.319.237-1.799.427-4.639-1.421-5.633-.9-.474-1.894-.332-2.889-.332-1.09.048-2.321.048-3.363.427-1.421.52-1.374 2.366 0 2.887zM433.036 166.307c-.047.095-.331.426-.142.237-.095.094-.142.189-.237.331a1.709 1.709 0 00-.284.947c0 .662.332 1.325.805 1.798.616.521 1.327.616 2.037.284.663-.331 1.232-1.183 1.374-1.893.189-1.041-.19-2.13-1.137-2.651-1.658-.946-3.363.474-3.6 2.13-.047.426-.095.805.095 1.231.189.379.426.663.758.899.615.426 1.421.426 2.084.142.947-.378 1.516-1.372 1.231-2.366-.237-.805-.947-1.278-1.752-1.326-.427-.047-.806.142-1.184.332.142-.048.284-.142.473-.19-.047 0-.095.048-.142.048.19 0 .332-.048.521-.048h-.142c.19 0 .332.048.521.048h-.047c.142.047.284.142.473.189 0 0-.047 0-.047-.047.332.52.616 1.088.947 1.609v-.331c0 .142-.047.331-.047.473 0-.095.047-.142.047-.237 0-.094.095-.331 0 0-.094.142-.094.19-.047.142.095-.142 0-.047-.189.237-.095.047-.19.142-.285.189-.331.095-.426.142-.237.142-.142 0-.331.048-.473.048h.095c-.143 0-.332-.048-.474-.048.284.048.142-.047-.521-.331a1.123 1.123 0 01-.284-.521c-.048-.331-.048-.426-.048-.236a.96.96 0 01.142-.521c-.047.047-.379.521 0 .047-.236.332-.379.521-.521.947.521-.426 1.09-.852 1.611-1.231-.379 0 .284.095.047 0 .237.095.284.142.142.048-.142-.095-.094-.048.095.094-.095-.142-.332-.236-.426-.331.142.142.189.142.094.047.143.474.19.568.19.332a.875.875 0 00-.521-.805c-.379-.142-.805-.142-.995.142zM439.004 162.425c-.994 0-1.468.947-1.468 1.847.047.615.237 1.183.758 1.562.71.52 1.705.473 2.368-.142.332-.284.521-.71.616-1.136 0-.095.047-.142.047-.237 0-.047.095-.805.048-.379-.048.284 0 .095 0 .048.047-.19.094-.379.094-.521 0-1.089-.805-1.941-1.705-2.414-.568-.284-1.326-.379-1.894 0-.427.284-.853.473-1.232.899-.474.615-.616 1.468-.426 2.225.094.426.284.899.473 1.231.521.899 1.469 1.325 2.511 1.088 1.231-.236 1.705-1.798 1.137-2.792.142.236.236.52.236.804 0-.189 0-.378-.094-.568-.095-.236-.19-.52-.284-.71-.095-.189-.143-.379-.285-.521.142.237.19.379.19.663-.048.379-.19.758-.427.994-.473.474-.284.237-.094.095.237-.142.426-.331.616-.521-.616.142-1.232.332-1.848.474.426.094-.331-.142.048 0 .236.142 0 .047-.095-.095-.048-.095-.095-.142-.142-.237-.095-.71-.19-.899-.19-.615V164.035c.048-.284.048-.379.048-.237-.095.474.189.19.947-.899.426.047.853.094 1.279.189-.047 0-.284-.189-.332-.189.048-.048.332.284.142.047-.142-.189.237.331.237.379v.663c0 .094-.142.142-.142.236.521-.71-.284-1.799-1.137-1.799zM437.489 172.508c.236.521.9.805 1.468.805a1.9 1.9 0 001.326-.568c.569-.569.758-1.326.616-2.083 0 .142.047.284.047.426v-.048c-.094.284-.142.521-.236.805.663-1.089-.142-2.509-1.327-2.793-.994-.236-2.084.142-2.605 1.042-.426.757-.379 1.798.095 2.509.521.757 1.326 1.278 2.273 1.278l-.994-.284c.426.189.426.189.805.236.379.048.474.095.853-.047.568-.142.994-.521 1.326-.994.237-.331.284-.805.284-1.231 0-.473-.142-.852-.331-1.231-.379-.757-1.185-1.278-2.037-1.278-1.374 0-2.653 1.42-2.179 2.793.379 1.136 1.468 1.752 2.652 1.515.379-.095.758-.331.995-.568-.142.095-.284.237-.426.331-.19.095-.332.142-.521.237-.19.047-.379.047-.569.095-.189-.048-.379-.048-.568-.095h.047c-.189-.095-.331-.142-.521-.237l.048.048c-.142-.095-.285-.237-.427-.332.048 0 .048.048.048.048-.095-.142-.237-.284-.332-.426.047.047.047.094.095.142-.095-.19-.142-.332-.237-.521 0 .047 0 .047.047.094-.047-.189-.047-.378-.094-.568.047.237 0 .426.094.71-.047-.189-.047-.378-.094-.568v.048c.047-.19.047-.379.094-.568.048-.142.142-.332.19-.474.095-.142.189-.284.331-.426.285-.189.616-.331.9-.52h-.047c.19-.048.379-.048.521-.095h-.142c.189.047.332.047.521.095-.047 0-.095-.048-.189-.048.142.048.331.142.473.19-.047-.048-.094-.048-.142-.095.142.095.284.189.379.331-.047-.047-.142-.094-.189-.189.094.142.189.284.284.379 0-.048-.048-.048-.048-.095.048.142.143.331.19.473 0-.047-.047-.094-.047-.142 0 .19.047.332.047.521v-.095c0 .19-.047.332-.047.521 0-.047 0-.095.047-.142-.047.142-.142.284-.19.473 0-.047.048-.094.048-.094-.095.142-.19.236-.284.378l.094-.094c-.142.094-.236.189-.379.284.048-.047.048-.048.095-.048-.142.048-.284.143-.426.19.047 0 .095-.047.142-.047-.142 0-.332.047-.474.047h.142c-.142 0-.331-.047-.473-.047h.047c-.142-.048-.284-.095-.426-.19.331.142.663.284 1.042.284-.379-.142-.758-.331-1.137-.473 0 0 0 .047.047.047l-.426-.71v.095c0-.142-.047-.284-.047-.426v.094c0-.142.047-.284.047-.426 0 .048-.047.142-.047.19.047-.142.094-.237.142-.379-.048.047-.048.095-.095.142.095-.095.142-.189.237-.331-.047.047-.047.094-.095.094.095-.094.19-.142.332-.236-.142.094-.284.236-.427.331.095-.095.19-.142.332-.237-.047 0-.047.048-.095.048.142-.048.237-.095.379-.142-.379.142-.758.331-.995.71a2.22 2.22 0 00.143 1.562zM429.057 170.851c-.616 1.467-.616 3.266-.663 4.828-.048 1.373-.332 3.219.189 4.544.474 1.137 1.421 1.941 2.7 1.752 1.184-.142 2.227-1.184 2.132-2.414-.047-1.42-.284-2.793-.426-4.166-.143-1.467-.143-3.077-.616-4.497-.616-1.704-2.653-1.562-3.316-.047z" fill="#00155F"/><path d="M430.004 176.721c1.658.568 3.363.804 5.021.094.711-.331 1.042-1.372.853-2.082a1.82 1.82 0 00-1.753-1.326c-1.373-.047-2.795.568-4.074.994-1.231.332-1.184 1.894-.047 2.32zM441.988 168.153c4.548.663 9.427.568 14.022.284 1.042-.047 1.752-.663 2.084-1.609.947-2.699-.711-5.018-.284-7.669l-1.516 1.515c1.847-.331 4.642-.142 6.158-1.373 1.705-1.372 1.516-4.923 1.184-6.863-.474-2.793-4.784-1.61-4.263 1.183.189 1.089 0 2.367-.379 3.361l1.516-1.515c-1.658.71-3.648.663-5.4.994-.664.142-1.421.852-1.516 1.515-.19 1.231-.19 2.367.047 3.645.237 1.372.758 2.65.237 4.023.711-.52 1.421-1.041 2.084-1.609-4.689.284-9.947.095-14.258 2.272-.663.426-.568 1.751.284 1.846z" fill="#00155F"/><path d="M450.894 167.112c-1.042.994-.948 2.414-1.042 3.739-.048 1.325-.19 2.651-.095 3.976.237 3.456 3.316 3.077 5.968 3.03 2.748-.048 2.748-4.166 0-4.26-.852 0-2.226.142-2.842-.142.427.331.9.662 1.327 1.041.094.521.094.473.047-.189-.047-.379-.047-.758-.095-1.136-.047-.758-.142-1.515-.189-2.273-.142-1.325-.142-2.84-1.184-3.739-.569-.521-1.374-.568-1.895-.047zM461.125 169.478c-.426.474-.758.994-.852 1.61-.095.615-.048 1.183.426 1.656.474.474 1.042.521 1.658.427.852-.142 1.421-.853 1.705-1.61.237-.663.142-1.42-.189-2.035.047.142.094.284.189.426-.095-.426-.331-.71-.568-1.042-.142-.094-.237-.189-.379-.284-.237-.142-.427-.189-.711-.236-.426-.048-.805 0-1.184.236-.569.284-.995.9-1.184 1.515a2.139 2.139 0 00-.142.757c0 .19.047.426.094.616.095.378.332.615.569.899.426.521 1.279.663 1.895.521.615-.189 1.184-.71 1.373-1.373a2.901 2.901 0 000-1.278c.048.189.048.331.048.521v-.237c0 .189-.048.331-.048.521 0-.142.048-.237.095-.332-.047.142-.142.284-.189.474 0 0 0-.048.047-.048l-2.132.852c.048 0 .142.048.19.048-.142-.048-.284-.142-.427-.19h.048l-.616-.615c.047.047.047.095.095.142-.048-.142-.095-.284-.19-.426.048.047.048.142.048.189 0-.142-.048-.331-.048-.473v.189c0-.142.048-.284.048-.473 0 .095-.048.142-.048.189.048-.142.095-.284.19-.426-.048.048-.048.142-.095.19.095-.095.189-.237.284-.332-.047.048-.047.095-.095.095.095-.095.237-.189.332-.284-.047.047-.095.047-.142.095.142-.048.284-.095.426-.19-.047 0-.047.048-.095.048.616.236 1.279.52 1.895.757-.047-.095-.094-.142-.142-.237-.142-.236.095.237.048.095 0-.047-.048-.189-.048-.189v0c0-.474-.284-.947-.758-1.136-.473-.095-1.089 0-1.421.378zM461.031 177.951c-.285.332-.474.616-.616 1.042-.142.615-.048 1.041.189 1.656.427.947 1.99 1.089 2.606.332.568-.663.852-1.42.757-2.32a4.874 4.874 0 00-.189-.804 2.833 2.833 0 00-.237-.568c-.095-.142-.189-.284-.284-.379.142.189.189.237.095.095-.379-.616-1.137-.994-1.895-.758-1.09.332-1.753 1.278-1.8 2.414-.048 1.136.568 2.367 1.8 2.557.758.142 1.468-.048 1.942-.663.474-.616.474-1.326.142-2.036.142.332.19.379.095.237-.095-.331-.237-.615-.521-.852.189.284.237.331.142.189.142.332.142.379.095.19.047.331.047.426.047.236-.047.332-.047.426 0 .237.095-.568.095-.663.047-.189-.142.284-.142.331-.047.189-.616.237-1.232.521-1.895.757-.473-.331-.616-.426-.426-.236-.142-.19-.19-.237-.095-.095.142.237.095.095-.095-.426v.189c.048-.284.048-.331 0-.142-.047.142-.047.095.048-.142-.095.142-.048.237.095 0-.048.048-.095-.236-.143.237h2.369c-.047-.473-.284-.473-.047-.142-.143-.237.047.142 0-.142-.237-.994-1.564-1.373-2.179-.663zM455.915 182.827c-.332.426-.521.852-.426 1.373.094.568.426 1.041.9 1.325.473.284 1.184.331 1.657 0 .664-.473 1.09-1.136 1.043-1.988 0-.379-.095-.805-.332-1.136a3.362 3.362 0 00-.332-.426c-.094-.142-.047-.047.142.189a2.511 2.511 0 00-.284-.378c-.805-.805-2.131-.569-2.7.331-.284.426-.521.947-.615 1.42-.143.615-.048 1.183.331 1.657.379.52.9.71 1.516.757 1.468.142 2.842-1.278 2.747-2.745-.047-.852-.473-1.515-1.184-2.036-.237-.142-.474-.284-.758-.331-.189-.048-.426-.095-.616-.048-.379 0-.615.142-.994.284-.569.237-.9.995-.9 1.563 0 .615.331 1.23.9 1.562.236.142.473.189.71.284-.142-.048-.284-.142-.426-.19.047.048.142.048.189.095-.142-.095-.237-.189-.379-.284l.142.142c-.094-.142-.189-.237-.284-.379.048.048.048.095.048.142-.048-.142-.142-.284-.19-.426.048.048.047.142.047.19 0-.19-.047-.332-.047-.521v.142c0-.189.047-.331.047-.521 0 .048-.047.095-.047.142.048-.142.142-.284.19-.473 0 .189 0 .237-.095.284.095-.142.189-.237.331-.379l-.094.095c.142-.095.237-.189.379-.284-.048.047-.142.095-.19.142.142-.047.284-.142.474-.189-.048 0-.095.047-.142.047.189 0 .331-.047.521-.047h-.142c.189 0 .331.047.521.047h-.095c.426.805.9 1.562 1.326 2.367.142-.521.142-1.042.095-1.562l-1.705 1.704h.047c-.142 0-.284-.048-.426-.048-.19-.094-.379-.236-.569-.331a1.038 1.038 0 01-.236-.379c-.095-.284-.048-.094-.048 0 0-.142-.047-.284-.047-.426v.237c0-.142.047-.284.047-.426-.047.237.19-.331.095-.189-.095.142.284-.332.142-.142.379-.142.758-.332 1.137-.474-.284.048.426.142.142.048-.095 0-.047 0 .237.094-.142-.047-.237-.094-.379-.142-.521-.236-1.137-.094-1.421.237zM446.11 177.904c-1.516 1.467-1.327 4.544-1.374 6.485l2.132-2.13c-1.99.095-3.932.189-5.922.189-1.373 0-3.363-.568-4.547.237-.947.663-1.421 1.893-.758 2.935.995 1.704 3.127 1.467 4.832 1.42 2.131-.095 4.31-.332 6.442-.521 1.137-.095 2.179-.899 2.132-2.13-.048-1.941.142-5.018-1.374-6.485a1.116 1.116 0 00-1.563 0zM442.462 174.212c-.284.237-.474.568-.616.899 0 .048-.047.095-.047.142 0 .095-.048.142-.048.237-.047.189-.047.237 0 .047 0-.236 0-.047 0 0-.047.142-.047.332-.047.474 0 .804.663 1.372 1.421 1.42.663.047 1.421-.426 1.753-1.042.189-.331.284-.662.284-1.041 0-.379-.095-.71-.284-1.041.047.142.095.236.142.378-.19-.52-.474-.994-.995-1.278-.521-.284-1.184-.426-1.752-.236a2.347 2.347 0 00-1.564 1.562c-.189.615-.094 1.372.237 1.94.427.71 1.184 1.184 2.037 1.184.805 0 1.611-.426 2.037-1.136.284-.521.426-1.042.332-1.657a2.875 2.875 0 00-.285-.899c-.189-.332-.521-.663-.852-.805-.142-.047-.332-.142-.474-.189a1.556 1.556 0 00-.805-.048c-.427.048-.806.237-1.137.568-.426.379-.853.805-.948 1.373-.142.615-.047 1.183.332 1.657.332.426.9.804 1.516.757.379-.047.71-.095 1.042-.284.189-.095.332-.237.521-.379.142-.094.237-.189.379-.284-.805.095-1.611.19-2.416.332.048 0 .048.047.095.047-.142-.095-.284-.189-.426-.331l.047.047a2.626 2.626 0 00-.332-.426s.048.047.048.095c-.048-.142-.142-.332-.19-.474 0 .048 0 .048.048.095-.048-.189-.048-.379-.095-.521v.142c.047-.189.047-.378.095-.52 0 .047 0 .094-.048.142.048-.142.142-.332.19-.474 0 .048-.048.095-.048.142.095-.142.19-.284.332-.426 0 .048-.047.048-.047.048.142-.095.284-.19.426-.332 0 0-.047.048-.095.048.142-.048.332-.142.474-.19-.048 0-.048 0-.095.048.19-.048.379-.048.521-.095h-.189c.189.047.379.047.521.095-.048 0-.048 0-.095-.048.142.048.332.142.474.19-.048 0-.048-.048-.095-.048.142.095.284.19.426.332l-.094-.095c.094.142.189.284.284.379 0-.048-.048-.048-.048-.095.048.142.143.331.19.473 0-.047-.047-.094-.047-.142 0 .19.047.332.047.521v-.142c0 .189-.047.331-.047.521 0-.048 0-.095.047-.142-.047.142-.142.284-.19.426 0-.048.048-.048.048-.095-.095.142-.19.237-.284.379 0-.048.047-.048.047-.095-.142.095-.237.189-.379.284.047-.047.095-.047.142-.095-.142.048-.284.095-.426.19.047 0 .095-.048.142-.048-.142 0-.284.048-.426.048h.142c-.142 0-.285-.048-.427-.048.048 0 .095 0 .142.048-.142-.048-.236-.095-.378-.142.047 0 .047.047.094.047l-.568-.568c.047.047.047.095.095.142-.048-.142-.095-.237-.143-.379 0 .048 0 .095.048.095 0-.142-.048-.284-.048-.379v.19c0-.142.048-.284.048-.379 0 .047-.048.095-.048.189.048-.094.095-.236.143-.331-.048.047-.048.095-.095.142.095-.095.142-.189.237-.284-.142.142.284-.047.142 0-.048 0-.095.189-.142.189h1.421c.331 0 .142.048.047-.094.095.189.237.331.332.52 0-.047-.048-.094-.048-.142-.047-.189 0 .19 0 .095 0-.047 0-.189 0 0v.047c0-.094 0-.047-.047.095.189-.473.189-.994-.284-1.373-.427-.615-.948-.52-1.374-.189zM593.711 403.456H593c-1.137 0-1.989-.947-1.989-2.035 0-1.089.9-1.989 2.037-1.989 12.505.142 22.926-5.632 32.589-11.691 15.821-9.893 43.816-44.921 40.548-66.837-.142-1.089.616-2.131 1.705-2.273 1.137-.142 2.132.616 2.274 1.704 3.553 23.857-25.342 60.211-42.395 70.861-9.521 5.917-20.795 12.26-34.058 12.26zM510.626 215.962c-3.695 0-8.574-1.326-14.637-4.024-.995-.426-1.468-1.657-1.042-2.651.426-1.041 1.658-1.467 2.653-1.041 8.857 3.881 15.015 4.733 16.91 2.272 3.316-4.308-3.316-18.366-8.147-24.378-.379-.473-.995-1.23-1.706-2.177-1.8-2.319-5.494-7.148-6.726-8.047a2.035 2.035 0 01-.426-2.84 2.038 2.038 0 012.842-.426c1.563 1.183 4.358 4.686 7.531 8.851.664.9 1.232 1.657 1.611 2.083 3.458 4.308 13.974 21.822 8.242 29.348-1.563 2.035-3.931 3.03-7.105 3.03z" fill="#00155F"/><path d="M516.168 182.259c-7.721 0-18.237-5.207-20.416-10.414-.426-1.041.048-2.225 1.09-2.651 1.042-.426 2.226.048 2.653 1.089 1.515 3.645 11.557 8.568 17.905 7.858 3.031-.332 3.6-1.799 3.789-2.888 1.137-6.39-4.784-13.254-9.568-18.792-1.421-1.657-2.748-3.171-3.837-4.639-.853-1.136-2.605-3.644-4.453-6.343-2.463-3.597-5.305-7.715-6.489-9.183-.711-.852-.569-2.13.284-2.84s2.132-.568 2.842.284c1.327 1.61 4.074 5.586 6.727 9.467 1.8 2.651 3.505 5.065 4.357 6.201 1.043 1.373 2.321 2.84 3.695 4.45 5.305 6.153 11.937 13.822 10.469 22.105-.616 3.55-3.221 5.728-7.342 6.201-.569.095-1.137.095-1.706.095zM506.22 131.61c-3.126 0-7.626-.852-10.468-3.692-.805-.805-.805-2.083 0-2.84.805-.805 2.084-.805 2.842 0 2.747 2.745 8.337 2.698 9.426 2.367 2.085-.616 3.364-1.515 3.837-2.793 1.374-3.55-2.51-9.893-5.068-14.106-.853-1.42-1.658-2.698-2.132-3.645l-.805-1.609c-3.553-7.1-7.295-14.627-7.863-16.141-.379-1.042.142-2.225 1.184-2.604 1.042-.378 2.179.142 2.605 1.184.569 1.562 5.921 12.26 7.674 15.762l.805 1.61c.427.899 1.137 2.035 1.942 3.313 3.174 5.16 7.485 12.26 5.4 17.656-.994 2.509-3.173 4.26-6.489 5.207-.616.189-1.658.331-2.89.331zM274.588 329.66a2.16 2.16 0 01-1.374-.52c-.805-.758-.9-2.036-.142-2.84l2.179-2.367c15.821-17.325 24.537-26.886 31.027-44.116 3.079-8.189 2.226-20.355 1.421-32.046-.616-8.805-1.184-17.088-.19-23.763 1.042-6.721 4.406-13.111 7.674-19.265 2.084-3.881 4.026-7.574 5.353-11.266 1.8-4.97 2.842-8.993 3.837-12.875 1.61-6.248 3.126-12.118 7.484-19.975 2.179-3.929 4.31-7.006 6.347-9.941 2.558-3.692 5.021-7.195 7.39-12.165 1.563-3.313 4.073-9.183 5.921-13.443l1.8-4.213c1.326-3.029 4.831-11.124 11.7-8.378 9.758 3.929 9.332 16.899 9.095 25.514-.048 1.325-.095 2.556-.095 3.644 0 16.757-4.642 26.555-9.569 36.874l-1.421 2.935c-3.031 6.39-2.463 18.319-1.989 27.881.142 3.124.284 6.058.284 8.473a2.02 2.02 0 01-2.037 2.035c-1.089 0-2.037-.899-2.037-2.035 0-2.367-.142-5.207-.284-8.284-.473-10.035-1.089-22.532 2.369-29.821l1.421-2.982c4.926-10.319 9.189-19.266 9.189-35.123 0-1.136.048-2.414.095-3.739.237-7.953.616-18.793-6.537-21.68-1.942-.757-3.789 0-6.489 6.248l-1.8 4.213c-1.943 4.544-4.358 10.225-5.969 13.633-2.51 5.254-5.021 8.899-7.721 12.733-1.989 2.887-4.074 5.822-6.158 9.609-4.121 7.384-5.495 12.78-7.105 19.029-1.042 3.976-2.084 8.094-3.979 13.253-1.421 3.929-3.553 7.905-5.59 11.787-3.126 5.869-6.347 11.928-7.247 17.987-.947 6.201-.379 14.295.237 22.863.852 12.165 1.752 24.709-1.658 33.75-6.727 17.94-15.632 27.691-31.785 45.442l-2.179 2.366c-.379.332-.9.568-1.468.568zM332.662 403.03c-.569 0-1.184-.237-1.563-.757-.711-.852-.569-2.13.331-2.841 3.742-3.029 6.584-6.484 9.569-10.224 1.231-1.515 2.416-3.029 3.742-4.497 5.921-6.863 13.121-13.964 21.363-21.064 4.926-4.26 10.658-7.147 16.2-9.893 4.927-2.461 9.995-5.017 14.353-8.473 6.205-4.923 13.168-12.97 20.842-23.857 2.227-3.171 4.737-6.295 7.39-9.656 5.116-6.39 10.421-13.017 13.405-19.834.426-1.041 1.658-1.467 2.653-1.041 1.042.426 1.468 1.657 1.042 2.651-3.221 7.289-8.669 14.106-13.974 20.685-2.605 3.266-5.068 6.343-7.247 9.42-7.958 11.36-15.016 19.407-21.601 24.709-4.689 3.739-9.947 6.39-15.063 8.946-5.589 2.793-10.847 5.396-15.347 9.325-8.1 7.006-15.158 13.964-20.985 20.686-1.279 1.467-2.463 2.934-3.647 4.402-2.984 3.692-6.111 7.526-10.184 10.84a1.87 1.87 0 01-1.279.473zM378.136 308.312c-1.09 0-2.037-.899-2.037-2.035 0-16.141-5.021-36.969-9.758-51.122-2.226-6.722-4.216-11.881-7.011-19.076a1.973 1.973 0 011.137-2.604 1.974 1.974 0 012.605 1.137c2.843 7.289 4.832 12.496 7.106 19.312 4.831 14.437 9.947 35.738 9.947 52.353 0 1.136-.9 2.035-1.989 2.035z" fill="#00155F"/><path d="M329.535 404.024c-3.079 0-6.347-.473-9.426-1.704-12.079-4.639-18.758-13.254-25.863-22.342-1.848-2.367-3.695-4.734-5.732-7.148-6.821-8.094-14.4-20.543-16.011-30.2-1.231-7.337-.047-15.431 1.043-22.579l.379-2.603c.142-1.089 1.184-1.846 2.273-1.704 1.09.142 1.848 1.183 1.706 2.272l-.379 2.603c-.995 6.817-2.179 14.58-1.043 21.301 1.469 8.899 8.669 20.638 15.111 28.307 2.037 2.414 3.932 4.875 5.826 7.242 7.011 9.041 13.122 16.804 24.158 21.064 5.495 2.13 11.748 1.562 15.301.189a1.974 1.974 0 012.605 1.137 1.972 1.972 0 01-1.137 2.603c-2.321.947-5.447 1.562-8.811 1.562z" fill="#00155F"/><path d="M222.766 482.222c-.71 0-1.373-.332-1.752-.994-.569-.947-.237-2.178.71-2.746 7.816-4.639 16.2-8.994 26.337-13.774 5.116-2.414 10.516-4.261 15.727-6.012 6.679-2.272 13.547-4.591 19.752-8.142l1.564-.899c3.789-2.13 7.721-4.355 10.989-6.958 2.605-2.083 4.927-4.402 7.39-6.864 3.647-3.645 7.389-7.384 12.031-10.177l.995-.615c17.716-10.651 36-21.632 34.437-44.117-.095-1.088.758-2.082 1.847-2.13 1.09-.047 2.085.758 2.132 1.846 1.753 24.946-18.474 37.111-36.379 47.856l-.995.616c-4.216 2.508-7.626 5.964-11.226 9.561-2.416 2.462-4.974 4.97-7.721 7.195-3.506 2.793-7.579 5.112-11.511 7.337l-1.563.9c-6.49 3.692-13.595 6.058-20.416 8.378-5.116 1.751-10.421 3.503-15.3 5.822-10.042 4.734-18.332 9.041-26.005 13.633-.379.189-.711.284-1.043.284zM63.655 463.95c-.521 0-.995-.189-1.421-.568-.805-.757-.805-2.035-.047-2.84 13.073-13.396 29.653-22.626 45.663-31.62 8.763-4.923 17.811-9.987 26.053-15.573 5.495-3.739 11.274-7.29 16.863-10.698 4.784-2.934 9.711-5.917 14.448-9.088 3.789-2.509 6.679-5.87 9.757-9.467 2.558-2.982 5.211-6.012 8.385-8.568 4.168-3.313 8.905-5.585 13.405-7.763 3.884-1.846 7.579-3.597 10.895-6.011 2.226-1.61 4.595-3.077 6.963-4.592 2.937-1.846 6.016-3.787 8.763-5.917a36.729 36.729 0 012.085-1.42c3.41-2.272 9.757-6.532 15.584-14.248.663-.852 1.373-1.846 2.179-2.982 8.052-11.076 24.868-34.128 46.516-24.803 1.042.426 1.516 1.609 1.042 2.65-.426 1.042-1.658 1.515-2.653 1.042-18.71-8.047-33.631 12.449-41.637 23.478-.805 1.136-1.563 2.13-2.226 3.029-6.205 8.237-12.932 12.734-16.532 15.148-.758.52-1.421.946-1.847 1.278-2.89 2.225-6.016 4.213-9.048 6.106-2.273 1.467-4.594 2.887-6.773 4.45-3.648 2.556-7.627 4.496-11.511 6.342-4.358 2.083-8.81 4.213-12.647 7.29-2.89 2.319-5.306 5.112-7.864 8.047-3.126 3.645-6.347 7.384-10.61 10.177-4.784 3.172-9.758 6.201-14.59 9.136-5.542 3.361-11.321 6.863-16.721 10.555-8.384 5.728-17.526 10.84-26.337 15.763-15.726 8.994-32.068 18.129-44.716 31.052-.379.426-.9.615-1.42.615zM645.105 487.192c-.757 0-1.515-.426-1.847-1.184-.047 0-1.042-1.42-7.342-9.514-3.742-4.781-8.1-9.325-12.316-13.68-5.21-5.396-10.563-11.029-14.968-17.23-2.606-3.692-4.69-7.81-6.727-11.739-1.563-3.029-3.173-6.153-4.926-8.994-1.8-2.887-4.642-5.68-7.721-8.615-5.021-4.875-10.279-9.94-11.558-16.425-1.326-6.721 2.795-13.916 2.984-14.248.569-.946 1.8-1.278 2.748-.71.947.568 1.279 1.799.71 2.746-.047.047-3.552 6.201-2.51 11.407 1.042 5.255 5.826 9.846 10.421 14.343 3.079 2.982 6.252 6.059 8.289 9.372 1.895 3.03 3.505 6.201 5.116 9.325 1.989 3.835 4.026 7.811 6.442 11.266 4.216 6.012 9.474 11.455 14.59 16.757 4.263 4.449 8.715 9.041 12.6 14.011 7.531 9.656 7.721 10.035 7.815 10.319.474.994 0 2.225-.994 2.651a2.209 2.209 0 01-.806.142zM832.828 488.801a2.005 2.005 0 01-1.421-.568c-7.627-7.621-13.358-10.65-19.421-13.916-5.353-2.84-10.895-5.823-18.143-11.976-7.626-6.485-13.594-14.437-19.326-22.106-3.458-4.639-7.058-9.419-10.895-13.774-6.442-7.242-14.068-14.39-22.121-20.733-2.416-1.893-5.021-3.361-7.816-4.97-3.031-1.704-6.158-3.503-8.953-5.822-3.363-2.793-4.31-7.337-5.257-11.739-.711-3.409-1.421-6.627-3.079-8.568-.948-1.136-2.653-2.13-4.737-3.408-3.458-2.083-8.148-4.923-13.927-10.556-3.552-3.455-6.489-9.704-9.616-16.283-5.352-11.313-11.415-24.094-21.268-24.094h-.19c-1.089 0-1.989-.899-2.036-1.988 0-1.089.852-2.035 1.989-2.035h.237c12.363 0 18.995 14.011 24.868 26.413 2.985 6.248 5.779 12.117 8.811 15.1 5.447 5.301 9.9 7.999 13.169 9.987 2.415 1.468 4.357 2.651 5.731 4.26 2.321 2.746 3.174 6.58 3.979 10.319.853 3.882 1.611 7.574 3.884 9.467 2.511 2.131 5.353 3.74 8.385 5.444 2.794 1.562 5.637 3.219 8.289 5.302 8.242 6.437 16.058 13.774 22.642 21.206 3.979 4.497 7.627 9.325 11.132 14.011 5.637 7.526 11.416 15.289 18.711 21.443 6.916 5.869 12.268 8.709 17.431 11.455 6.348 3.361 12.316 6.579 20.369 14.626.805.805.805 2.083 0 2.84-.426.474-.947.663-1.421.663z" fill="#00155F"/><path d="M362.836 449.371c-7.769 0-15.774-.615-23.542-1.231-15.111-1.183-30.695-2.414-44.906.9-1.042.236-2.179-.426-2.416-1.515-.237-1.089.427-2.177 1.516-2.414 14.826-3.503 30.742-2.225 46.137-.994 9.616.757 19.516 1.562 28.8 1.089 14.069-.663 28.374-2.273 42.206-3.882 23.921-2.745 48.648-5.538 73.185-3.503 1.089.095 1.942 1.089 1.847 2.178a2.02 2.02 0 01-2.179 1.846c-24.111-1.988-48.648.804-72.379 3.503-13.927 1.609-28.28 3.218-42.49 3.881-1.895.095-3.837.142-5.779.142zM422.52 320.62a2.02 2.02 0 01-1.942-1.515c-.284-1.089.379-2.178 1.468-2.462 12.506-3.124 31.169-7.242 47.89-6.863 1.09 0 1.99.946 1.99 2.082 0 1.089-.9 1.989-2.037 1.989h-.047c-16.201-.379-34.532 3.692-46.848 6.769h-.474zM483.152 337.897c-.189 0-.379-.047-.568-.095-11.464-3.313-21.79-5.491-30.695-6.39-11.653-1.231-24.774-.947-36.948.805-1.089.142-2.131-.616-2.273-1.704-.143-1.089.615-2.131 1.705-2.273 12.505-1.798 26.005-2.082 37.942-.852 9.142.947 19.705 3.172 31.406 6.533 1.089.331 1.705 1.42 1.373 2.508-.284.9-1.089 1.468-1.942 1.468z" fill="#00155F"/><path d="M491.158 349.967c-.237 0-.474-.047-.758-.142-27-10.603-49.264-12.97-72.19-7.763-1.09.237-2.179-.426-2.416-1.514-.237-1.089.426-2.178 1.516-2.415 23.779-5.396 46.753-2.982 74.558 7.905 1.042.426 1.563 1.563 1.137 2.604-.284.852-1.042 1.325-1.847 1.325zM147.403 408.426a1.71 1.71 0 01-.521-.094c-1.09-.285-1.706-1.421-1.421-2.509.426-1.562.805-3.361 1.184-5.16.71-3.55 1.468-7.242 2.889-10.224 11.322-23.573 48.838-46.531 71.527-54.01 1.042-.378 2.179.237 2.558 1.278.332 1.042-.237 2.178-1.279 2.557-21.458 7.1-58.453 29.631-69.158 51.926-1.232 2.509-1.895 5.964-2.605 9.278-.379 1.941-.758 3.787-1.232 5.443-.284.947-1.09 1.515-1.942 1.515zM154.129 375.765s-.047 0 0 0c-1.137 0-2.037-.9-2.037-1.988 0-.521.663-11.361 2.179-35.549l.663-10.366c1.137-18.698 4.737-46.909 10.99-64.802 4.405-12.639 9.805-22.2 15.49-32.33 2.747-4.923 5.636-9.988 8.526-15.668a2.04 2.04 0 012.7-.899 2.036 2.036 0 01.9 2.698c-2.937 5.775-5.826 10.887-8.621 15.857-5.59 9.988-10.895 19.408-15.206 31.667-6.11 17.514-9.615 45.253-10.752 63.713l-.663 10.367c-.9 14.532-2.132 34.46-2.179 35.359 0 1.041-.9 1.941-1.99 1.941zM301.825 221.452a2.005 2.005 0 01-1.421-.568c-7.437-7.431-13.974-12.875-19.421-16.094-18.806-11.218-43.153-22.957-65.037-13.821-7.722 3.218-14.022 13.443-15.774 16.52-.569.946-1.8 1.325-2.748.757-.947-.568-1.326-1.799-.758-2.746 1.895-3.313 8.811-14.484 17.716-18.224 23.543-9.798 49.074 2.367 68.685 14.106 5.684 3.408 12.505 9.041 20.179 16.71.805.804.805 2.082 0 2.84-.379.331-.9.52-1.421.52zM303.577 290.467c-.473 0-.947-.142-1.326-.473-4.168-3.598-42.442-34.366-93.079-15.384-1.042.378-2.227-.142-2.606-1.184-.379-1.041.142-2.177 1.185-2.603 52.816-19.786 92.747 12.354 97.105 16.094.853.71.948 1.988.237 2.84a1.93 1.93 0 01-1.516.71z" fill="#00155F"/><path d="M290.03 192.436c-1.421 0-2.937 0-4.547-.047-5.59-.142-10.421-.994-14.637-1.799-5.921-1.089-10.611-1.941-14.4-.142-.995.473-2.227.047-2.7-.947-.474-.994-.048-2.225.947-2.698 5.021-2.367 10.516-1.325 16.863-.189 4.074.757 8.716 1.609 14.022 1.704 13.405.284 19.847-.663 30.41-2.793 1.09-.237 2.132.473 2.369 1.562.237 1.089-.474 2.13-1.563 2.367-9.616 1.988-15.916 2.982-26.764 2.982zM426.025 319.578c-.71 0-1.421-.379-1.8-1.089-.521-.994-.142-2.177.853-2.745 10.516-5.586 28.563-11.645 44.811-15.1 1.089-.237 2.179.473 2.416 1.562.237 1.089-.474 2.178-1.563 2.414-15.727 3.361-33.727 9.42-43.769 14.721-.332.142-.616.237-.948.237zM495.373 279.864c-.331 0-.71-.095-1.042-.284-.947-.568-1.279-1.799-.71-2.745 1.089-1.799 1.705-3.929 2.037-6.769.142-1.089 1.137-1.894 2.226-1.799 1.09.142 1.895 1.136 1.8 2.225-.379 3.408-1.184 6.106-2.558 8.378-.426.615-1.089.994-1.753.994zM390.404 286.586c-5.968 0-11.084-.142-16.152-7.621-4.927-7.29-3.932-21.065-3.885-21.633V41.862c.048-.804.048-1.608.048-2.413-.048-4.118-.048-10.272 5.305-15.147 5.305-4.781 11.795-5.018 17.526-5.255l1.611-.047h87.253l.616.047c5.4.426 10.516.852 13.974 5.255 3.173 4.023 3.221 9.277 3.268 13.49 0 1.089 0 2.13.095 3.077l.189 178.311c0 1.089-.9 2.036-1.989 2.036-1.09 0-2.037-.9-2.037-2.036l-.237-178.17c-.047-.898-.095-2.035-.095-3.17-.047-3.977-.094-8.095-2.415-11.03-2.369-3.03-6.253-3.36-11.132-3.74l-.426-.047-88.532.095c-5.543.237-10.753.426-14.969 4.213-4.026 3.645-3.979 8.142-3.979 12.118 0 .9 0 1.799-.047 2.556v215.469c0 .284-.948 13.112 3.173 19.219 3.979 5.869 7.058 5.916 13.122 5.869h79.247c1.09 0 2.037.899 2.037 2.035 0 1.089-.9 2.036-2.037 2.036h-79.153c-.094-.047-.237-.047-.379-.047z" fill="#00155F"/><path d="M435.31 34.479a1037.8 1037.8 0 01-14.59-.095c-9-.19-10.563-2.84-12.41-7.195l-.284-.663c-.427-1.041.047-2.224 1.042-2.65 1.042-.427 2.226.047 2.652 1.04l.285.71c1.421 3.314 1.942 4.592 8.81 4.734 5.969.142 22.169.142 31.5 0 7.674-.094 8.053-1.467 8.716-3.976.095-.426.237-.804.379-1.278.332-1.041 1.469-1.657 2.511-1.325 1.042.331 1.658 1.467 1.326 2.509-.095.378-.237.71-.332 1.088-1.089 3.977-2.605 6.817-12.552 6.959-4.69.094-11.085.142-17.053.142z" fill="#00155F"/><path d="M495.373 223.535a2.02 2.02 0 01-2.037-2.035l.521-176.797a56.501 56.501 0 01-.094-3.077c-.048-3.834-.095-7.763-2.321-10.603-2.274-2.935-5.969-3.219-10.706-3.597l-.426-.048-17.006.284c-1.136.048-2.036-.852-2.036-1.988 0-1.136.852-2.035 1.989-2.035l17.195-.284.616.047c5.21.426 10.184.805 13.547 5.112 3.079 3.93 3.127 8.994 3.174 13.065 0 1.041 0 2.083.095 2.982l-.521 176.939c0 1.136-.9 2.035-1.99 2.035zM492.389 277.071c-.426 0-.9-.142-1.232-.426-.852-.71-1.042-1.941-.331-2.84 1.421-1.799 2.273-4.071 2.652-7.1.142-1.089 1.185-1.894 2.274-1.752 1.09.142 1.895 1.184 1.753 2.273-.521 3.786-1.611 6.674-3.506 9.04a1.93 1.93 0 01-1.61.805zM391.873 282.231c-5.779 0-10.706-.142-15.632-7.385-4.784-7.052-3.79-20.401-3.742-20.969V45.602c.047-.804.047-1.562.047-2.366 0-3.977-.047-9.988 5.163-14.674 5.069-4.64 11.369-4.876 16.911-5.113l1.516-.047 13.642.095c1.089 0 1.989.9 1.989 2.035 0 1.089-.9 1.988-2.036 1.988l-13.548-.094-1.468.047c-5.353.237-10.374.426-14.448 4.07-3.884 3.504-3.837 7.811-3.837 11.645 0 .9 0 1.752-.047 2.509v208.322c0 .284-.9 12.686 3.079 18.555 3.837 5.633 6.963 5.633 12.647 5.633h77.638c1.089 0 2.037.9 2.037 2.036 0 1.088-.9 2.035-2.037 2.035h-77.496c-.094-.047-.236-.047-.378-.047zM310.493 220.364a2.003 2.003 0 01-1.705-.947c-7.105-11.029-19.421-18.839-21.079-19.455-1.042-.378-1.611-1.515-1.232-2.556.379-1.041 1.469-1.609 2.511-1.231 1.8.616 15.253 8.757 23.211 21.112.615.947.331 2.177-.616 2.793a2.208 2.208 0 01-1.09.284zM630.848 470.625c-.19 0-.427-.048-.616-.095-.474-.142-47.842-15.905-79.342-22.437-1.09-.237-1.8-1.278-1.564-2.367.237-1.088 1.327-1.751 2.369-1.562 31.737 6.58 79.295 22.39 79.768 22.579 1.043.331 1.611 1.515 1.279 2.556a1.993 1.993 0 01-1.894 1.326z" fill="#00155F"/><path d="M599.063 402.225a1.86 1.86 0 01-.853-.189c-3.316-1.562-6.205-4.639-9-7.621-1.421-1.515-2.795-2.982-4.074-4.071-6.205-5.301-13.5-9.23-21.6-11.644-9.094-2.698-18.947-3.456-27.473-3.882l-1.895-.094c-10.09-.521-20.511-1.042-28.706-8.379-6.821-6.106-12.221-13.68-17.431-21.017-2.416-3.408-4.974-6.958-7.579-10.271-.853-1.089-1.895-2.225-2.985-3.408-3.078-3.361-6.536-7.148-7.578-11.314-2.085-8.473-1.753-16.472-1.422-24.898.048-1.467.143-2.935.19-4.402.095-2.887-.142-5.775-.426-8.899-.427-4.639-.806-9.42 0-14.106.994-5.396 4.263-8.615 8.242-8.094 9.995 1.183 15.726 11.455 19.184 19.076 1.279 2.84 2.416 6.012 3.458 9.041 1.8 5.065 3.647 10.272 6.347 14.39 1.895 2.84 4.311 5.159 6.916 7.668.995.947 1.99 1.893 2.937 2.888.947.994 1.847 2.082 2.7 3.171 1.09 1.373 2.179 2.698 3.363 3.739.853.711.948 1.989.237 2.841-.71.852-1.989.946-2.842.236-1.516-1.278-2.747-2.84-3.932-4.307-.805-.994-1.563-1.988-2.463-2.888-.947-.946-1.895-1.893-2.842-2.792-2.605-2.509-5.353-5.16-7.484-8.331-2.984-4.545-4.927-9.988-6.821-15.29-1.09-3.076-2.132-6.011-3.363-8.709-3.032-6.722-8.006-15.81-16.011-16.757-2.7-.284-3.647 3.976-3.79 4.828-.757 4.118-.379 8.426.048 13.017.284 3.077.568 6.296.426 9.373a135.026 135.026 0 01-.189 4.449c-.332 8.142-.663 15.81 1.279 23.762.758 3.125 3.884 6.533 6.631 9.562 1.137 1.278 2.274 2.462 3.174 3.645 2.653 3.361 5.21 6.958 7.674 10.414 5.115 7.147 10.373 14.579 16.863 20.354 7.153 6.39 16.816 6.863 26.242 7.337l1.895.094c8.763.474 18.9 1.231 28.421 4.071 8.669 2.604 16.39 6.769 23.069 12.449 1.468 1.231 2.889 2.746 4.405 4.355 2.51 2.698 5.163 5.491 7.768 6.722.995.473 1.421 1.656.948 2.698-.142.71-.9 1.183-1.658 1.183z" fill="#00155F"/><path d="M532.179 339.08a2.02 2.02 0 01-1.942-1.515c-.948-3.597-1.8-7.384-2.653-11.171-2.226-9.798-4.5-19.928-8.621-28.401-2.89-5.964-8.053-11.123-13.026-16.141a395.5 395.5 0 01-4.595-4.686c-3.174-3.361-6.016-7.148-8.811-10.793-3.316-4.402-6.773-8.899-10.658-12.638-3.742-3.598-8.431-6.39-12.979-9.136a126.205 126.205 0 01-4.973-3.029c-7.911-5.065-14.874-11.787-21.316-18.224-5.543-5.538-11.085-11.645-13.074-19.928-.379-1.657-.521-2.604-.616-4.308-.379-4.781 1.611-7.147 3.316-8.283 6.3-4.166 18 1.798 18.521 2.082 1.895.994 3.695 1.894 4.547 2.509 3.743 2.509 7.39 5.302 10.895 8 4.406 3.36 8.906 6.863 13.642 9.751 5.022 3.077 10.516 5.585 15.774 7.999 3.553 1.61 7.2 3.266 10.706 5.113 5.779 3.029 11.273 6.768 16.579 10.366 3.126 2.13 6.347 4.307 9.568 6.296 3.6 2.224 7.342 3.692 11.369 5.254 3.552 1.42 7.247 2.84 10.752 4.828 2.984 1.704 5.306 4.639 7.39 7.242l.9 1.136c.71.852.568 2.13-.284 2.84-.853.71-2.132.568-2.843-.284l-.947-1.136c-1.942-2.414-3.932-4.923-6.205-6.248-3.221-1.846-6.632-3.171-10.232-4.591-3.979-1.563-8.1-3.172-11.984-5.586-3.269-2.035-6.537-4.26-9.711-6.39-5.21-3.55-10.658-7.195-16.2-10.13-3.41-1.799-7.058-3.455-10.516-5.018-5.4-2.461-10.989-5.017-16.247-8.236-4.926-3.029-9.521-6.579-14.021-9.988-3.458-2.65-7.058-5.396-10.706-7.857-.758-.521-2.889-1.61-3.884-2.13-4.453-2.32-11.7-4.45-14.732-2.462-.426.284-1.752 1.184-1.515 4.592.094 1.467.189 2.225.521 3.645 1.705 7.289 6.631 12.685 11.984 18.034 6.3 6.296 13.074 12.828 20.653 17.704 1.563.994 3.221 1.988 4.831 2.982 4.737 2.84 9.616 5.727 13.69 9.656 4.074 3.929 7.626 8.568 11.037 13.065 2.7 3.597 5.542 7.289 8.574 10.508 1.421 1.515 2.936 3.029 4.5 4.592 5.21 5.254 10.61 10.65 13.831 17.182 4.311 8.899 6.679 19.266 8.953 29.253.853 3.74 1.705 7.479 2.605 11.029a2.028 2.028 0 01-1.421 2.462c-.095.189-.284.189-.426.189z" fill="#00155F"/><path d="M596.884 243.795c-.568 0-1.184-.237-1.563-.758-2.653-3.266-5.779-6.911-9.332-8.993-3.647-2.131-7.863-2.935-12.363-3.74-2.653-.473-5.4-.994-8.005-1.799-3.411-1.088-6.821-2.272-10.232-3.455-12.789-4.497-24.868-8.71-37.611-6.722l-3.742.616c-3.789.615-7.673 1.23-11.51 1.704l-.663.094c-2.511.284-4.69.521-5.969 2.272-.663.9-1.942 1.089-2.795.426a1.978 1.978 0 01-.426-2.792c2.321-3.172 5.921-3.55 8.811-3.882l.663-.094c3.742-.426 7.626-1.042 11.321-1.657l3.742-.616c13.737-2.13 26.858 2.415 39.553 6.864 3.363 1.183 6.726 2.367 10.089 3.408 2.369.758 4.879 1.184 7.532 1.704 4.642.852 9.426 1.752 13.69 4.213 4.168 2.414 7.579 6.39 10.421 9.94.71.852.568 2.131-.284 2.841-.427.284-.853.426-1.327.426z" fill="#00155F"/><path d="M611.569 227.559c-.521 0-.995-.19-1.421-.568-.711-.71-1.421-1.42-2.132-2.083-2.605-2.556-5.021-5.018-7.958-6.911-5.258-3.456-12.079-3.55-18.663-3.692-3.837-.048-7.816-.142-11.463-.852-2.227-.426-4.548-1.042-6.964-1.61-9.189-2.272-19.563-4.875-27.237-.094-1.136.71-2.321 2.035-3.505 3.313-.473.568-.995 1.089-1.468 1.562-.758.805-2.037.805-2.842.048-.806-.758-.806-2.036-.048-2.841.427-.426.9-.946 1.327-1.467 1.279-1.42 2.7-2.982 4.31-4.023 9.095-5.681 20.369-2.888 30.316-.379 2.368.568 4.642 1.136 6.774 1.562 3.316.663 6.916.71 10.752.757 7.2.142 14.59.237 20.843 4.308 3.268 2.13 5.968 4.828 8.573 7.431.711.663 1.374 1.373 2.085 2.036.805.757.805 2.035.047 2.84-.284.426-.805.663-1.326.663z" fill="#00155F"/><path d="M668.174 328.666c-.805 0-1.516-.473-1.847-1.23-2.7-6.438-5.59-13.065-8.432-19.692-7.816-18.034-15.916-36.684-19.611-50.554-.379-1.325-.757-2.84-1.136-4.402-3.364-13.112-9.048-35.075-18.143-41.702-2.084-1.515-4.784-1.751-7.626-2.035-.663-.048-1.374-.142-2.037-.19-2.605-.331-5.21-.852-7.721-1.372-2.037-.427-4.026-.853-6.063-1.137-1.421-.189-3.079-.52-4.879-.899-7.058-1.42-16.674-3.408-20.606 1.42-.71.852-1.989.994-2.842.284-.852-.71-.994-1.988-.284-2.84 5.448-6.722 16.484-4.449 24.537-2.84 1.705.331 3.269.663 4.642.852 2.132.284 4.216.757 6.3 1.183 2.416.521 4.927.994 7.342 1.326.616.047 1.279.142 1.895.189 3.126.284 6.632.568 9.663 2.746 10.232 7.478 15.916 29.442 19.658 43.974a202.62 202.62 0 011.137 4.355c3.6 13.585 11.653 32.093 19.421 49.986 2.89 6.674 5.779 13.301 8.479 19.738.427 1.042-.047 2.225-1.089 2.651-.237.142-.474.189-.758.189z" fill="#00155F"/></g><defs><clipPath id="clip0"><path fill="#fff" transform="translate(61.618 19)" d="M0 0h773.199v474.771H0z"/></clipPath></defs></svg>